<svg xmlns="http://www.w3.org/2000/svg" xmlns:xlink="http://www.w3.org/1999/xlink" version="1.1" id="Layer_1" x="0px" y="0px" width="100px" height="100px" viewBox="0 0 100 100" enable-background="new 0 0 100 100" xml:space="preserve">
<polygon points="96,37 96,48 95,48 95,35 90,35 90,48 89,48 89,46 84,46 84,48 83,48 83,39 78,39 78,48 77,48 77,32 72,32 72,48   71,48 71,33 66,33 66,48 65,48 65,22 60,22 60,48 59,48 59,45 54,45 54,48 53,48 53,39 48,39 48,48 47,48 47,22 42,22 42,48 41,48   41,33 36,33 36,48 35,48 35,35 30,35 30,48 29,48 29,42 24,42 24,48 23,48 23,29 18,29 18,48 17,48 17,14 12,14 12,48 11,48 11,35   6,35 6,48 5,48 5,42 0,42 0,48 0,51 0,57 5,57 5,51 6,51 6,64 11,64 11,51 12,51 12,85 17,85 17,51 18,51 18,70 23,70 23,51 24,51   24,57 29,57 29,51 30,51 30,64 35,64 35,51 36,51 36,66 41,66 41,51 42,51 42,77 47,77 47,51 48,51 48,60 53,60 53,51 54,51 54,54   59,54 59,51 60,51 60,77 65,77 65,51 66,51 66,66 71,66 71,51 72,51 72,67 77,67 77,51 78,51 78,60 83,60 83,51 84,51 84,53 89,53   89,51 90,51 90,64 95,64 95,51 96,51 96,62 100,62 100,51 100,48 100,37 "/>
</svg>