<?xml version="1.0" encoding="utf-8"?><svg width="100%" height="100%" version="1.1" viewBox="-3 -3 106 106" xmlns:xlink="http://www.w3.org/1999/xlink" xmlns="http://www.w3.org/2000/svg"><defs /><g id="layer1"><rect x="0" y="0" width="100" height="100" opacity="0" fill-opacity="0" /><g><g><path d="M84.8386346931611 75.5192913483758 C84.8386346931611 76.5968219734406 83.998568412148 77.4793318465925 82.9720807372981 77.4793318465925 L17.8657739500311 77.4793318465925 C16.8400662810131 77.4793318465925 16 76.5968219734406 16 75.5192913483758 L16 27.1279235964183 C16 26.0495735564295 16.8400662810131 25.1678830982016 17.8657739500311 25.1678830982016 L56.8598255010147 25.1678830982016 C57.8855331700326 25.1678830982016 58.7263794568778 26.0495735564295 58.7263794568778 27.1279235964183 L58.7263794568778 29.0887835095589 C58.7263794568778 30.1663141346237 57.8863131758646 31.0488240077756 56.8598255010147 31.0488240077756 L23.4638758059562 31.0488240077756 C22.4381681369383 31.0488240077756 21.5981018559251 31.9305144660035 21.5981018559251 33.0096839209163 L21.5981018559251 69.638350438802 C21.5981018559251 70.7150616489427 22.4381681369383 71.5983909370186 23.4638758059562 71.5983909370186 L77.3747588872049 71.5983909370186 C78.4004665562228 71.5983909370186 79.241312843068 70.7158810638666 79.241312843068 69.638350438802 L79.241312843068 56.1311148315263 C79.241312843068 55.0552230363096 80.0813791240812 54.1702549183857 81.1078667989309 54.1702549183857 L82.973640748962 54.1702549183857 C83.9993484179799 54.1702549183857 84.840194704825 55.0544036213856 84.840194704825 56.1311148315263 L84.840194704825 75.5192913483758 Z " opacity="1" fill="#DDDDDD" fill-opacity="1" /></g><g><path d="M93.448339066256 25.0015418686289 C94.1940246416028 24.2624296071777 94.1831045599556 23.0644449882844 93.4194788504736 22.3433598551612 L83.5929653795325 13.0282509990881 C82.8308996817147 12.3038882062688 82.1819348295299 11.7393113236304 82.1491745845879 11.7712685056665 C82.1179743513098 11.8032256877026 82.0547938789217 11.7884762190706 82.0064335173405 11.7417695684024 C81.9627531907513 11.6926046729622 81.2864881344481 12.2301408631085 80.5088223199912 12.9291017932836 L70.1082245567327 22.3171385775931 C69.3297787364439 23.0185577525401 69.2876584215185 24.2190006162055 70.0115038335707 24.9794176656808 L71.3304936954029 26.3650483021709 C72.0558991191189 27.1279235964183 73.243848001183 27.1279235964183 73.969253424899 26.3650483021709 L77.9199829637399 22.2155311270166 C78.6453883874559 21.4526558327692 79.2389728255721 21.7115909487544 79.2389728255721 22.7899409887431 L79.2389728255721 42.219088251793 C79.2389728255721 43.2966188768576 80.0782591007533 44.1799481649336 81.1047467756032 44.1799481649336 L82.9713007314661 44.1799481649336 C83.997008400484 44.1799481649336 84.8378546873292 43.2974382917817 84.8378546873292 42.219088251793 L84.8378546873292 22.7899409887431 C84.8378546873292 21.7115909487544 85.4010188979991 21.4846130148054 86.0882040359495 22.2835425657089 L89.4843494282719 26.2355807441784 C90.1691945487266 27.0361491249299 91.3446633374793 27.0844946054461 92.0903489128262 26.3453823439948 L93.448339066256 25.0015418686289 Z " opacity="1" fill="#DDDDDD" fill-opacity="1" /></g><path d="M74.7188388555473 44.9882724704589 L74.7188388555473 50.7010949884694 L74.1884348916305 50.7010949884694 L74.1884348916305 43.9495774671842 L71.5364150720461 43.9495774671842 L71.5364150720461 50.7010949884694 L71.0060111081292 50.7010949884694 L71.0060111081292 49.6623999851947 L68.353991288545 49.6623999851947 L68.353991288545 50.7010949884694 L67.823587324628 50.7010949884694 L67.823587324628 46.0269674737334 L65.1715675050437 46.0269674737334 L65.1715675050437 50.7010949884694 L64.6411635411268 50.7010949884694 L64.6411635411268 42.3915349622722 L61.9891437215425 42.3915349622722 L61.9891437215425 50.7010949884694 L61.4587397576256 50.7010949884694 L61.4587397576256 42.9108824639095 L58.8067199380412 42.9108824639095 L58.8067199380412 50.7010949884694 L58.2763159741244 50.7010949884694 L58.2763159741244 37.198059945899 L55.6242961545401 37.198059945899 L55.6242961545401 50.7010949884694 L55.0938921906231 50.7010949884694 L55.0938921906231 49.1430524835574 L52.4418723710388 49.1430524835574 L52.4418723710388 50.7010949884694 L51.911468407122 50.7010949884694 L51.911468407122 46.0269674737334 L49.2594485875376 46.0269674737334 L49.2594485875376 50.7010949884694 L48.7290446236207 50.7010949884694 L48.7290446236207 37.198059945899 L46.0770248040364 37.198059945899 L46.0770248040364 50.7010949884694 L45.5466208401196 50.7010949884694 L45.5466208401196 42.9108824639095 L42.8946010205352 42.9108824639095 L42.8946010205352 50.7010949884694 L42.3641970566183 50.7010949884694 L42.3641970566183 43.9495774671842 L39.7121772370339 43.9495774671842 L39.7121772370339 50.7010949884694 L39.1817732731171 50.7010949884694 L39.1817732731171 47.5850099786455 L36.5297534535327 47.5850099786455 L36.5297534535327 50.7010949884694 L35.9993494896158 50.7010949884694 L35.9993494896158 40.8334924573603 L33.3473296700315 40.8334924573603 L33.3473296700315 50.7010949884694 L32.8169257061146 50.7010949884694 L32.8169257061146 33.0432799328004 L30.1649058865303 33.0432799328004 L30.1649058865303 50.7010949884694 L29.6345019226134 50.7010949884694 L29.6345019226134 43.9495774671842 L26.982482103029 43.9495774671842 L26.982482103029 50.7010949884694 L26.4520781391122 50.7010949884694 L26.4520781391122 47.5850099786455 L23.8000583195278 47.5850099786455 L23.8000583195278 50.7010949884694 L23.8000583195278 52.2591374933815 L23.8000583195278 55.3752225032053 L26.4520781391122 55.3752225032053 L26.4520781391122 52.2591374933815 L26.982482103029 52.2591374933815 L26.982482103029 59.0106550146666 L29.6345019226134 59.0106550146666 L29.6345019226134 52.2591374933815 L30.1649058865303 52.2591374933815 L30.1649058865303 69.9169525490503 L32.8169257061146 69.9169525490503 L32.8169257061146 52.2591374933815 L33.3473296700315 52.2591374933815 L33.3473296700315 62.1267400244906 L35.9993494896158 62.1267400244906 L35.9993494896158 52.2591374933815 L36.5297534535327 52.2591374933815 L36.5297534535327 55.3752225032053 L39.1817732731171 55.3752225032053 L39.1817732731171 52.2591374933815 L39.7121772370339 52.2591374933815 L39.7121772370339 59.0106550146666 L42.3641970566183 59.0106550146666 L42.3641970566183 52.2591374933815 L42.8946010205352 52.2591374933815 L42.8946010205352 60.0493500179412 L45.5466208401196 60.0493500179412 L45.5466208401196 52.2591374933815 L46.0770248040364 52.2591374933815 L46.0770248040364 65.7621725359517 L48.7290446236207 65.7621725359517 L48.7290446236207 52.2591374933815 L49.2594485875376 52.2591374933815 L49.2594485875376 56.9332650081172 L51.911468407122 56.9332650081172 L51.911468407122 52.2591374933815 L52.4418723710388 52.2591374933815 L52.4418723710388 53.8171799982934 L55.0938921906231 53.8171799982934 L55.0938921906231 52.2591374933815 L55.6242961545401 52.2591374933815 L55.6242961545401 65.7621725359517 L58.2763159741244 65.7621725359517 L58.2763159741244 52.2591374933815 L58.8067199380412 52.2591374933815 L58.8067199380412 60.0493500179412 L61.4587397576256 60.0493500179412 L61.4587397576256 52.2591374933815 L61.9891437215425 52.2591374933815 L61.9891437215425 60.5686975195786 L64.6411635411268 60.5686975195786 L64.6411635411268 52.2591374933815 L65.1715675050437 52.2591374933815 L65.1715675050437 56.9332650081172 L67.823587324628 56.9332650081172 L67.823587324628 52.2591374933815 L68.353991288545 52.2591374933815 L68.353991288545 53.2978324966559 L71.0060111081292 53.2978324966559 L71.0060111081292 52.2591374933815 L71.5364150720461 52.2591374933815 L71.5364150720461 59.0106550146666 L74.1884348916305 59.0106550146666 L74.1884348916305 52.2591374933815 L74.7188388555473 52.2591374933815 L74.7188388555473 57.9719600113919 L76.8404547112149 57.9719600113919 L76.8404547112149 52.2591374933815 L76.8404547112149 50.7010949884694 L76.8404547112149 44.9882724704589 Z " opacity="1" fill="#DDDDDD" fill-opacity="1" /></g></g></svg>