<?xml version="1.0" encoding="utf-8"?>
<!-- Generator: Adobe Illustrator 16.0.0, SVG Export Plug-In . SVG Version: 6.00 Build 0)  -->
<!DOCTYPE svg PUBLIC "-//W3C//DTD SVG 1.1//EN" "http://www.w3.org/Graphics/SVG/1.1/DTD/svg11.dtd">
<svg version="1.1" id="Layer_1" xmlns="http://www.w3.org/2000/svg" xmlns:xlink="http://www.w3.org/1999/xlink" x="0px" y="0px"
	 width="100px" height="80.229px" viewBox="0 0 100 80.229" enable-background="new 0 0 100 80.229" xml:space="preserve">
<polygon fill="#010101" points="51.223,65.19 45.229,45.635 38.554,60.119 32.987,43.018 31.085,51.689 15.769,51.689 
	15.769,49.298 27.637,49.298 32.987,31.424 38.554,52.47 45.229,35.043 51.223,54.143 52.258,49.298 68.738,49.298 68.738,51.689 
	56.202,51.689 "/>
<g>
	<path fill="#010101" d="M88.254,77.837c0,1.315-1.077,2.392-2.393,2.392H2.392C1.077,80.229,0,79.152,0,77.837V18.781
		c0-1.316,1.077-2.392,2.392-2.392h49.992c1.315,0,2.393,1.076,2.393,2.392v2.393c0,1.315-1.077,2.392-2.393,2.392H9.569
		c-1.315,0-2.392,1.076-2.392,2.393V70.66c0,1.314,1.077,2.392,2.392,2.392h69.116c1.315,0,2.393-1.077,2.393-2.392V54.176
		c0-1.313,1.077-2.393,2.393-2.393h2.392c1.315,0,2.393,1.079,2.393,2.393V77.837z"/>
</g>
<g>
	<path fill="#010101" d="M99.292,16.186c0.956-0.902,0.942-2.364-0.037-3.244L86.657,1.574C85.68,0.69,84.848,0.001,84.806,0.04
		c-0.04,0.039-0.121,0.021-0.183-0.036c-0.056-0.06-0.923,0.596-1.92,1.449L69.369,12.91c-0.998,0.856-1.052,2.321-0.124,3.249
		l1.691,1.691c0.93,0.931,2.453,0.931,3.383,0l5.065-5.064c0.93-0.931,1.691-0.615,1.691,0.701v23.711
		c0,1.315,1.076,2.393,2.392,2.393h2.393c1.315,0,2.393-1.077,2.393-2.393V13.487c0-1.316,0.722-1.593,1.603-0.618l4.354,4.823
		c0.878,0.977,2.385,1.036,3.341,0.134L99.292,16.186z"/>
</g>
</svg>
