<?xml version="1.0" encoding="utf-8"?><svg width="100%" height="100%" version="1.1" viewBox="-3 7.00018997704319 105.999252319336 86.2288062998123" style="background-color:#FFFFFF" xmlns:xlink="http://www.w3.org/1999/xlink" xmlns="http://www.w3.org/2000/svg"><defs /><g id="layer1"><g><path d="M88.254 87.837 C88.254 89.152 87.177 90.229 85.861 90.229 L2.392 90.229 C1.077 90.229 0 89.152 0 87.837 L0 28.781 C0 27.465 1.077 26.389 2.392 26.389 L52.384 26.389 C53.699 26.389 54.777 27.465 54.777 28.781 L54.777 31.174 C54.777 32.489 53.7 33.566 52.384 33.566 L9.569 33.566 C8.254 33.566 7.177 34.642 7.177 35.959 L7.177 80.66 C7.177 81.974 8.254 83.052 9.569 83.052 L78.685 83.052 C80 83.052 81.078 81.975 81.078 80.66 L81.078 64.176 C81.078 62.863 82.155 61.783 83.471 61.783 L85.863 61.783 C87.178 61.783 88.256 62.862 88.256 64.176 L88.256 87.837 Z " opacity="1" fill="#010101" fill-opacity="1" /></g><g><path d="M99.292 26.186 C100.248 25.284 100.234 23.822 99.255 22.942 L86.657 11.574 C85.68 10.69 84.848 10.001 84.806 10.04 C84.766 10.079 84.685 10.061 84.623 10.004 C84.567 9.944 83.7 10.6 82.703 11.453 L69.369 22.91 C68.371 23.766 68.317 25.231 69.245 26.159 L70.936 27.85 C71.866 28.781 73.389 28.781 74.319 27.85 L79.384 22.786 C80.314 21.855 81.075 22.171 81.075 23.487 L81.075 47.198 C81.075 48.513 82.151 49.591 83.467 49.591 L85.86 49.591 C87.175 49.591 88.253 48.514 88.253 47.198 L88.253 23.487 C88.253 22.171 88.975 21.894 89.856 22.869 L94.21 27.692 C95.088 28.669 96.595 28.728 97.551 27.826 L99.292 26.186 Z " opacity="1" fill="#010101" fill-opacity="1" /></g><path d="M75.2799997771064 50.5774651983343 L75.2799997771064 57.5492963801463 L74.5999997794282 57.5492963801463 L74.5999997794282 49.3098595289139 L71.1999997910372 49.3098595289139 L71.1999997910372 57.5492963801463 L70.5199997933591 57.5492963801463 L70.5199997933591 56.2816907107259 L67.1199998049681 56.2816907107259 L67.1199998049681 57.5492963801463 L66.4399998072899 57.5492963801463 L66.4399998072899 51.8450708677546 L63.0399998188989 51.8450708677546 L63.0399998188989 57.5492963801463 L62.3599998212207 57.5492963801463 L62.3599998212207 47.4084510247833 L58.9599998328298 47.4084510247833 L58.9599998328298 57.5492963801463 L58.2799998351516 57.5492963801463 L58.2799998351516 48.0422538594935 L54.8799998467606 48.0422538594935 L54.8799998467606 57.5492963801463 L54.1999998490824 57.5492963801463 L54.1999998490824 41.0704226776815 L50.7999998606915 41.0704226776815 L50.7999998606915 57.5492963801463 L50.1199998630133 57.5492963801463 L50.1199998630133 55.6478878760157 L46.7199998746223 55.6478878760157 L46.7199998746223 57.5492963801463 L46.0399998769442 57.5492963801463 L46.0399998769442 51.8450708677546 L42.6399998885532 51.8450708677546 L42.6399998885532 57.5492963801463 L41.959999890875 57.5492963801463 L41.959999890875 41.0704226776815 L38.5599999024841 41.0704226776815 L38.5599999024841 57.5492963801463 L37.8799999048059 57.5492963801463 L37.8799999048059 48.0422538594935 L34.4799999164149 48.0422538594935 L34.4799999164149 57.5492963801463 L33.7999999187367 57.5492963801463 L33.7999999187367 49.3098595289139 L30.3999999303457 49.3098595289139 L30.3999999303457 57.5492963801463 L29.7199999326675 57.5492963801463 L29.7199999326675 53.7464793718852 L26.3199999442766 53.7464793718852 L26.3199999442766 57.5492963801463 L25.6399999465984 57.5492963801463 L25.6399999465984 45.5070425206528 L22.2399999582074 45.5070425206528 L22.2399999582074 57.5492963801463 L21.5599999605292 57.5492963801463 L21.5599999605292 36 L18.1599999721383 36 L18.1599999721383 57.5492963801463 L17.4799999744601 57.5492963801463 L17.4799999744601 49.3098595289139 L14.0799999860691 49.3098595289139 L14.0799999860691 57.5492963801463 L13.399999988391 57.5492963801463 L13.399999988391 53.7464793718852 L10 53.7464793718852 L10 57.5492963801463 L10 59.4507048842769 L10 63.253521892538 L13.399999988391 63.253521892538 L13.399999988391 59.4507048842769 L14.0799999860691 59.4507048842769 L14.0799999860691 67.6901417355093 L17.4799999744601 67.6901417355093 L17.4799999744601 59.4507048842769 L18.1599999721383 59.4507048842769 L18.1599999721383 81.0000012644231 L21.5599999605292 81.0000012644231 L21.5599999605292 59.4507048842769 L22.2399999582074 59.4507048842769 L22.2399999582074 71.4929587437704 L25.6399999465984 71.4929587437704 L25.6399999465984 59.4507048842769 L26.3199999442766 59.4507048842769 L26.3199999442766 63.253521892538 L29.7199999326675 63.253521892538 L29.7199999326675 59.4507048842769 L30.3999999303457 59.4507048842769 L30.3999999303457 67.6901417355093 L33.7999999187367 67.6901417355093 L33.7999999187367 59.4507048842769 L34.4799999164149 59.4507048842769 L34.4799999164149 68.9577474049296 L37.8799999048059 68.9577474049296 L37.8799999048059 59.4507048842769 L38.5599999024841 59.4507048842769 L38.5599999024841 75.9295785867417 L41.959999890875 75.9295785867417 L41.959999890875 59.4507048842769 L42.6399998885532 59.4507048842769 L42.6399998885532 65.1549303966685 L46.0399998769442 65.1549303966685 L46.0399998769442 59.4507048842769 L46.7199998746223 59.4507048842769 L46.7199998746223 61.3521133884074 L50.1199998630133 61.3521133884074 L50.1199998630133 59.4507048842769 L50.7999998606915 59.4507048842769 L50.7999998606915 75.9295785867417 L54.1999998490824 75.9295785867417 L54.1999998490824 59.4507048842769 L54.8799998467606 59.4507048842769 L54.8799998467606 68.9577474049296 L58.2799998351516 68.9577474049296 L58.2799998351516 59.4507048842769 L58.9599998328298 59.4507048842769 L58.9599998328298 69.5915502396398 L62.3599998212207 69.5915502396398 L62.3599998212207 59.4507048842769 L63.0399998188989 59.4507048842769 L63.0399998188989 65.1549303966685 L66.4399998072899 65.1549303966685 L66.4399998072899 59.4507048842769 L67.1199998049681 59.4507048842769 L67.1199998049681 60.7183105536972 L70.5199997933591 60.7183105536972 L70.5199997933591 59.4507048842769 L71.1999997910372 59.4507048842769 L71.1999997910372 67.6901417355093 L74.5999997794282 67.6901417355093 L74.5999997794282 59.4507048842769 L75.2799997771064 59.4507048842769 L75.2799997771064 66.4225360660889 L77.9999997678191 66.4225360660889 L77.9999997678191 59.4507048842769 L77.9999997678191 57.5492963801463 L77.9999997678191 50.5774651983343 Z " opacity="1" fill="#000000" fill-opacity="1" /></g></svg>